<?xml version="1.0" standalone="no"?>
<!DOCTYPE svg PUBLIC "-//W3C//DTD SVG 20010904//EN"
 "http://www.w3.org/TR/2001/REC-SVG-20010904/DTD/svg10.dtd">
<svg version="1.0" xmlns="http://www.w3.org/2000/svg"
 width="260.000000pt" height="260.000000pt" viewBox="0 0 260.000000 260.000000"
 preserveAspectRatio="xMidYMid meet">
<metadata>
Created by potrace 1.11, written by Peter Selinger 2001-2013
</metadata>
<g transform="translate(0.000000,260.000000) scale(0.100000,-0.100000)"
fill="#000000" stroke="none">
<path d="M791 1968 c-12 -32 -120 -286 -136 -323 -8 -16 -87 -203 -175 -415
-224 -532 -233 -548 -326 -571 -32 -8 -42 -16 -41 -30 1 -18 12 -19 214 -19
198 0 213 1 213 18 0 14 -13 21 -57 30 -125 27 -127 49 -25 289 l47 113 50 0
c231 4 458 1 465 -6 4 -5 18 -34 30 -64 12 -30 30 -73 40 -95 31 -72 51 -144
48 -171 -5 -41 -52 -71 -115 -73 -15 -1 -21 -7 -20 -21 1 -20 8 -20 344 -20
336 0 343 0 343 20 0 16 -7 20 -32 21 -54 1 -71 5 -103 20 -55 26 -60 49 -63
326 l-4 251 24 4 c12 2 46 1 73 0 l50 -4 95 -135 c52 -74 100 -140 105 -146 6
-7 66 -90 133 -184 l123 -173 184 0 c175 0 185 1 185 19 0 15 -12 22 -52 31
-77 18 -146 56 -195 107 -24 24 -92 112 -151 194 -59 83 -129 180 -155 217
-75 105 -74 98 -14 118 192 63 279 173 273 350 -5 155 -103 269 -276 319 -57
16 -110 19 -423 22 -319 3 -358 2 -363 -12 -9 -22 -5 -24 51 -29 73 -6 105
-25 126 -70 16 -36 17 -83 18 -515 l1 -476 -104 250 c-58 138 -160 385 -228
550 -105 255 -127 300 -146 303 -15 2 -25 -4 -31 -20z m996 -86 c55 -29 96
-69 125 -123 32 -62 33 -205 1 -264 -58 -110 -182 -172 -353 -178 l-70 -3 0
287 0 287 38 10 c20 5 78 9 127 8 70 -2 99 -7 132 -24z m-903 -486 c58 -142
106 -259 106 -260 0 -1 -100 -1 -222 -1 -189 1 -223 3 -220 15 8 38 217 519
223 512 4 -4 55 -123 113 -266z"/>
</g>
</svg>
